<svg width="14" height="4" viewBox="0 0 14 4" fill="none" xmlns="http://www.w3.org/2000/svg">
<path d="M2.39203 0.64901H0.567383V3.40519H0.923074V1.0043H2.03634V3.40519H2.39203V0.64901Z" fill="white"/>
<path d="M5.38988 1.54531C5.30904 0.955851 4.91293 0.611328 4.41289 0.611328C3.80082 0.611328 3.34928 1.14561 3.34928 2.0271C3.34928 2.90859 3.79851 3.44287 4.41289 3.44287C4.93257 3.44287 5.31251 3.06336 5.38988 2.51832L5.02957 2.51697C4.96837 2.86957 4.7143 3.06336 4.4152 3.06336C4.00985 3.06336 3.70382 2.70134 3.70382 2.0271C3.70382 1.35824 4.00869 0.990841 4.41635 0.990841C4.71777 0.990841 4.97068 1.18867 5.02957 1.54531H5.38988Z" fill="white"/>
<path d="M7.70551 3.40519H8.14089L7.16505 1.89521L8.14666 0.64901H7.70436L6.78395 1.81312H6.66154V0.64901H6.30469V3.40519H6.66154V2.16975H6.90636L7.70551 3.40519Z" fill="white"/>
<path d="M10.9271 2.0271C10.9271 1.14561 10.4744 0.611328 9.86235 0.611328C9.24798 0.611328 8.79643 1.14561 8.79643 2.0271C8.79643 2.90725 9.24798 3.44287 9.86235 3.44287C10.4744 3.44287 10.9271 2.90859 10.9271 2.0271ZM10.5737 2.0271C10.5737 2.69865 10.2689 3.06336 9.86235 3.06336C9.45469 3.06336 9.15097 2.69865 9.15097 2.0271C9.15097 1.35555 9.45469 0.990841 9.86235 0.990841C10.2689 0.990841 10.5737 1.35555 10.5737 2.0271Z" fill="white"/>
<path d="M11.8598 3.40519H12.7664C13.3161 3.40519 13.5644 3.08624 13.5644 2.66366C13.5644 2.23704 13.308 1.99615 13.0736 1.98134V1.95443C13.2907 1.88983 13.472 1.71757 13.472 1.37305C13.472 0.965271 13.2295 0.64901 12.726 0.64901H11.8598V3.40519ZM12.2167 3.04856V2.16572H12.7444C13.0308 2.16572 13.2098 2.38104 13.2098 2.64347C13.2098 2.87495 13.0747 3.04856 12.7317 3.04856H12.2167ZM12.2167 1.84138V1.00295H12.704C12.9869 1.00295 13.1221 1.17656 13.1221 1.40535C13.1221 1.67181 12.935 1.84138 12.6948 1.84138H12.2167Z" fill="white"/>
</svg>
