<svg width="30" height="8" viewBox="0 0 30 8" fill="none" xmlns="http://www.w3.org/2000/svg">
<path d="M0.546631 1.37307H2.31492V7.12875H3.16858V1.37307H4.93965V0.513916H0.546631V1.37307Z" fill="white"/>
<path d="M7.08114 7.12875H9.25686C10.5761 7.12875 11.172 6.36327 11.172 5.34908C11.172 4.3252 10.5567 3.74705 9.99411 3.71152V3.64692C10.5152 3.49188 10.9503 3.07846 10.9503 2.2516C10.9503 1.27294 10.3683 0.513916 9.15985 0.513916H7.08114V7.12875ZM7.93757 6.27283V4.15401H9.2042C9.89156 4.15401 10.3212 4.6708 10.3212 5.30063C10.3212 5.85617 9.99688 6.27283 9.17371 6.27283H7.93757ZM7.93757 3.37561V1.36338H9.10719C9.78624 1.36338 10.1105 1.78004 10.1105 2.32912C10.1105 2.96864 9.66152 3.37561 9.08502 3.37561H7.93757Z" fill="white"/>
<path d="M13.3586 7.12875H16.9506V6.2696H14.215V4.24445H16.7316V3.38853H14.215V1.37307H16.9173V0.513916H13.3586V7.12875Z" fill="white"/>
<path d="M19.2321 7.12875H20.0885V4.80322H21.2526C22.5691 4.80322 23.2204 3.87624 23.2204 2.65534C23.2204 1.43767 22.5746 0.513916 21.2553 0.513916H19.2321V7.12875ZM20.0885 3.95699V1.36984H21.1639C22.012 1.36984 22.3584 1.906 22.3584 2.65534C22.3584 3.40468 22.012 3.95699 21.175 3.95699H20.0885Z" fill="white"/>
<path d="M26.2599 3.18181V0.513916H25.4007V7.12875H27.5265C28.7904 7.12875 29.5138 6.30836 29.511 5.12298C29.5138 3.94084 28.7904 3.18181 27.5265 3.18181H26.2599ZM26.2599 4.02159H27.5265C28.261 4.02159 28.6657 4.51253 28.6657 5.11006C28.6657 5.72374 28.261 6.28898 27.5265 6.28898H26.2599V4.02159Z" fill="white"/>
</svg>
